<svg width="30" height="30" viewBox="0 0 30 30" fill="none" xmlns="http://www.w3.org/2000/svg">
<g clip-path="url(#clip0_1976_160)">
<path d="M25 3.75H5C2.92893 3.75 1.25 5.42893 1.25 7.5V22.5C1.25 24.5711 2.92893 26.25 5 26.25H25C27.0711 26.25 28.75 24.5711 28.75 22.5V7.5C28.75 5.42893 27.0711 3.75 25 3.75Z" fill="#F19B5F"/>
<path d="M25 3.75H5C2.92893 3.75 1.25 5.42893 1.25 7.5V16.25C1.25 18.3211 2.92893 20 5 20H25C27.0711 20 28.75 18.3211 28.75 16.25V7.5C28.75 5.42893 27.0711 3.75 25 3.75Z" fill="#FFCE69"/>
<path d="M19.6463 15.0367L24.5913 10.5367C24.8366 10.3135 24.9833 10.0021 24.999 9.67088C25.0147 9.33964 24.8982 9.01574 24.6751 8.77041C24.452 8.52508 24.1405 8.37844 23.8093 8.36273C23.4781 8.34703 23.1541 8.46355 22.9088 8.68666L16.6876 14.3492C16.226 14.7695 15.6243 15.0024 15.0001 15.0024C14.3758 15.0024 13.7741 14.7695 13.3126 14.3492L7.09132 8.68791C6.84599 8.4648 6.52208 8.34828 6.19085 8.36398C5.85961 8.37969 5.54818 8.52634 5.32507 8.77166C5.10195 9.01699 4.98543 9.34089 5.00114 9.67213C5.00892 9.83614 5.04892 9.99702 5.11887 10.1456C5.18882 10.2941 5.28734 10.4274 5.40882 10.5379L10.3551 15.0379L5.41007 19.5254C5.28316 19.6342 5.17936 19.7673 5.10482 19.917C5.03027 20.0666 4.98649 20.2296 4.97607 20.3965C4.96564 20.5633 4.98878 20.7305 5.04412 20.8883C5.09946 21.046 5.18588 21.191 5.29826 21.3148C5.41063 21.4385 5.54669 21.5385 5.69837 21.6087C5.85005 21.6789 6.01428 21.718 6.18134 21.7237C6.34841 21.7294 6.51491 21.7014 6.67099 21.6416C6.82708 21.5818 6.96958 21.4913 7.09007 21.3754L12.2688 16.6754C13.0775 17.215 14.0279 17.5029 15.0001 17.5029C15.9722 17.5029 16.9226 17.215 17.7313 16.6754L22.9101 21.3754C23.0306 21.4913 23.1731 21.5818 23.3291 21.6416C23.4852 21.7014 23.6517 21.7294 23.8188 21.7237C23.9858 21.718 24.1501 21.6789 24.3018 21.6087C24.4534 21.5385 24.5895 21.4385 24.7019 21.3148C24.8143 21.191 24.9007 21.046 24.956 20.8883C25.0113 20.7305 25.0345 20.5633 25.0241 20.3965C25.0136 20.2296 24.9699 20.0666 24.8953 19.917C24.8208 19.7673 24.717 19.6342 24.5901 19.5254L19.6463 15.0367Z" fill="#ED960A"/>
<path d="M25 2.5H5C3.67392 2.5 2.40215 3.02678 1.46447 3.96447C0.526784 4.90215 0 6.17392 0 7.5L0 22.5C0 23.8261 0.526784 25.0978 1.46447 26.0355C2.40215 26.9732 3.67392 27.5 5 27.5H25C26.3261 27.5 27.5979 26.9732 28.5355 26.0355C29.4732 25.0978 30 23.8261 30 22.5V7.5C30 6.17392 29.4732 4.90215 28.5355 3.96447C27.5979 3.02678 26.3261 2.5 25 2.5ZM27.5 22.5C27.5 23.163 27.2366 23.7989 26.7678 24.2678C26.2989 24.7366 25.663 25 25 25H5C4.33696 25 3.70107 24.7366 3.23223 24.2678C2.76339 23.7989 2.5 23.163 2.5 22.5V7.5C2.5 6.83696 2.76339 6.20107 3.23223 5.73223C3.70107 5.26339 4.33696 5 5 5H25C25.663 5 26.2989 5.26339 26.7678 5.73223C27.2366 6.20107 27.5 6.83696 27.5 7.5V22.5Z" fill="#6C2E7C"/>
<path d="M24.6751 8.77055C24.5646 8.64903 24.4313 8.55048 24.2828 8.4805C24.1342 8.41053 23.9733 8.37051 23.8093 8.36273C23.6453 8.35495 23.4813 8.37957 23.3268 8.43517C23.1723 8.49078 23.0303 8.57628 22.9088 8.68679L16.6876 14.348C16.226 14.7683 15.6243 15.0013 15.0001 15.0013C14.3758 15.0013 13.7741 14.7683 13.3126 14.348L7.09132 8.68679C6.84599 8.46368 6.52208 8.34716 6.19085 8.36287C5.85961 8.37857 5.54818 8.52522 5.32507 8.77055C5.10195 9.01587 4.98543 9.33978 5.00114 9.67102C5.00892 9.83503 5.04892 9.9959 5.11887 10.1445C5.18882 10.293 5.28734 10.4263 5.40882 10.5368L10.3551 15.0368L5.41007 19.5243C5.28316 19.6331 5.17936 19.7662 5.10482 19.9158C5.03027 20.0655 4.98649 20.2285 4.97607 20.3953C4.96564 20.5622 4.98878 20.7294 5.04412 20.8871C5.09946 21.0449 5.18588 21.1899 5.29826 21.3136C5.41063 21.4374 5.54669 21.5373 5.69837 21.6076C5.85005 21.6778 6.01428 21.7169 6.18134 21.7226C6.34841 21.7282 6.51491 21.7003 6.67099 21.6405C6.82708 21.5807 6.96958 21.4902 7.09007 21.3743L12.2688 16.6743C13.0775 17.2138 14.0279 17.5018 15.0001 17.5018C15.9722 17.5018 16.9226 17.2138 17.7313 16.6743L22.9101 21.3743C23.0306 21.4902 23.1731 21.5807 23.3291 21.6405C23.4852 21.7003 23.6517 21.7282 23.8188 21.7226C23.9858 21.7169 24.1501 21.6778 24.3018 21.6076C24.4534 21.5373 24.5895 21.4374 24.7019 21.3136C24.8143 21.1899 24.9007 21.0449 24.956 20.8871C25.0113 20.7294 25.0345 20.5622 25.0241 20.3953C25.0136 20.2285 24.9699 20.0655 24.8953 19.9158C24.8208 19.7662 24.717 19.6331 24.5901 19.5243L19.6463 15.0355L24.5913 10.5355C24.8363 10.3125 24.9828 10.0013 24.9985 9.67038C25.0142 9.33942 24.8979 9.01577 24.6751 8.77055Z" fill="#6C2E7C"/>
</g>
<defs>
<clipPath id="clip0_1976_160">
<rect width="30" height="30" fill="white"/>
</clipPath>
</defs>
</svg>
