<svg width="30" height="30" viewBox="0 0 30 30" fill="none" xmlns="http://www.w3.org/2000/svg">
<path d="M17.6367 11.332V10.7461H14.1211V11.332H5.83594V22.2598C5.83594 25.5586 8.51953 28.2422 11.8184 28.2422H14.4141V28.8281H15.5859V28.2422H18.1816C21.4805 28.2422 24.1641 25.5586 24.1641 22.2598V11.332H17.6367ZM16.6406 23.332H13.3594L14.4551 19.9512L14.0566 19.7109C13.4883 19.3711 13.1426 18.7734 13.1426 18.1113C13.1426 17.0859 13.9805 16.248 15.0059 16.248C16.0312 16.248 16.8691 17.0859 16.8691 18.1113C16.8691 18.7734 16.5293 19.3711 15.9551 19.7109L15.5566 19.9512L16.6406 23.332Z" fill="#69C9C9"/>
<path d="M15 2.99414C12.8965 2.99414 11.1914 4.70508 11.1914 6.80273V10.1602H9.95508V6.80273C9.95508 4.01953 12.2168 1.75781 15 1.75781C17.7832 1.75781 20.0449 4.01953 20.0449 6.80273V10.1602H18.8086V6.80273C18.8086 4.69922 17.1035 2.99414 15 2.99414Z" fill="#E6E6E6"/>
<path d="M18.252 24.5039L16.9395 20.4434C17.625 19.8691 18.0352 19.0137 18.0352 18.1113C18.0352 16.4355 16.6758 15.0762 15 15.0762C13.3242 15.0762 11.9648 16.4355 11.9648 18.1113C11.9648 19.0137 12.375 19.8691 13.0605 20.4434L11.748 24.5039H18.252ZM15 16.2422C16.0254 16.2422 16.8633 17.0801 16.8633 18.1055C16.8633 18.7676 16.5234 19.3652 15.9492 19.7051L15.5508 19.9453L16.6465 23.3262H13.3594L14.4551 19.9453L14.0566 19.7051C13.4883 19.3652 13.1426 18.7676 13.1426 18.1055C13.1367 17.0801 13.9746 16.2422 15 16.2422Z" fill="#4D5152"/>
<path d="M21.2168 10.1602V6.80273C21.2168 3.375 18.4277 0.585938 15 0.585938C11.5723 0.585938 8.7832 3.375 8.7832 6.80273V10.1602H4.66406V22.2598C4.66406 26.2031 7.875 29.4141 11.8184 29.4141H14.4141V28.2422H11.8184C8.51953 28.2422 5.83594 25.5586 5.83594 22.2598V11.332H14.1211V10.1602H12.3633V6.80273C12.3633 5.34961 13.5469 4.16602 15 4.16602C16.4531 4.16602 17.6367 5.34961 17.6367 6.80273V11.332H24.1582V22.2598C24.1582 25.5586 21.4746 28.2422 18.1758 28.2422H15.5859V29.4141H18.1816C22.125 29.4141 25.3359 26.2031 25.3359 22.2598V10.1602H21.2168ZM20.0449 10.1602H18.8086V6.80273C18.8086 4.69922 17.0977 2.99414 15 2.99414C12.8965 2.99414 11.1914 4.70508 11.1914 6.80273V10.1602H9.95508V6.80273C9.95508 4.01953 12.2168 1.75781 15 1.75781C17.7832 1.75781 20.0449 4.01953 20.0449 6.80273V10.1602Z" fill="#4D5152"/>
<path d="M16.4648 10.1602H15.293V11.332H16.4648V10.1602Z" fill="#4D5152"/>
</svg>
