<svg width="100" height="20" viewBox="0 0 100 20" fill="none" xmlns="http://www.w3.org/2000/svg">
<rect width="100" height="20" rx="10" fill="#FF0000" fill-opacity="0.55"/>
<rect x="0.5" y="0.5" width="99" height="19" rx="9.5" stroke="#FF0000" stroke-opacity="0.55"/>
<path d="M21.3483 15C21.1897 15 21.059 14.9487 20.9563 14.846C20.8537 14.7433 20.8023 14.6127 20.8023 14.454V4.612C20.8023 4.45333 20.8537 4.32267 20.9563 4.22C21.059 4.11733 21.1897 4.066 21.3483 4.066H23.9663C24.6477 4.066 25.2543 4.21067 25.7863 4.5C26.3183 4.78 26.7337 5.17667 27.0323 5.69C27.3403 6.194 27.4943 6.77733 27.4943 7.44C27.4943 8.07467 27.3403 8.63933 27.0323 9.134C26.7337 9.62867 26.3183 10.016 25.7863 10.296C25.2543 10.576 24.6477 10.716 23.9663 10.716H21.8943V14.454C21.8943 14.6127 21.843 14.7433 21.7403 14.846C21.6377 14.9487 21.507 15 21.3483 15ZM27.2003 15C27.079 15 26.981 14.9767 26.9063 14.93C26.841 14.8833 26.7803 14.8133 26.7243 14.72L24.0363 10.436L25.1283 10.156L27.6343 14.16C27.7743 14.384 27.7977 14.58 27.7043 14.748C27.6203 14.916 27.4523 15 27.2003 15ZM21.8943 9.666H23.9663C24.4423 9.666 24.8623 9.57267 25.2263 9.386C25.5997 9.19 25.8937 8.924 26.1083 8.588C26.323 8.252 26.4303 7.86933 26.4303 7.44C26.4303 6.98267 26.323 6.58133 26.1083 6.236C25.8937 5.88133 25.5997 5.606 25.2263 5.41C24.8623 5.214 24.4423 5.116 23.9663 5.116H21.8943V9.666ZM32.7886 15.07C32.0326 15.07 31.3606 14.9067 30.7726 14.58C30.194 14.244 29.7366 13.782 29.4006 13.194C29.074 12.606 28.9106 11.934 28.9106 11.178C28.9106 10.4127 29.0646 9.74067 29.3726 9.162C29.69 8.574 30.124 8.112 30.6746 7.776C31.2253 7.44 31.86 7.272 32.5786 7.272C33.288 7.272 33.904 7.43533 34.4266 7.762C34.9586 8.07933 35.3693 8.52267 35.6586 9.092C35.948 9.66133 36.0926 10.31 36.0926 11.038C36.0926 11.1873 36.046 11.3087 35.9526 11.402C35.8593 11.486 35.738 11.528 35.5886 11.528H29.6386V10.632H35.7006L35.0986 11.066C35.108 10.5247 35.01 10.0393 34.8046 9.61C34.5993 9.18067 34.3053 8.84467 33.9226 8.602C33.5493 8.35933 33.1013 8.238 32.5786 8.238C32.0466 8.238 31.58 8.364 31.1786 8.616C30.7773 8.868 30.4646 9.218 30.2406 9.666C30.026 10.1047 29.9186 10.6087 29.9186 11.178C29.9186 11.7473 30.04 12.2513 30.2826 12.69C30.5346 13.1287 30.8753 13.474 31.3046 13.726C31.734 13.978 32.2286 14.104 32.7886 14.104C33.1246 14.104 33.4606 14.048 33.7966 13.936C34.142 13.8147 34.4173 13.6653 34.6226 13.488C34.7253 13.404 34.842 13.362 34.9726 13.362C35.1033 13.3527 35.2153 13.3853 35.3086 13.46C35.43 13.572 35.4906 13.6933 35.4906 13.824C35.5 13.9547 35.4486 14.0667 35.3366 14.16C35.0286 14.4213 34.6366 14.6407 34.1606 14.818C33.6846 14.986 33.2273 15.07 32.7886 15.07ZM38.8683 15C38.7283 15 38.6069 14.9533 38.5042 14.86C38.4016 14.7573 38.3503 14.622 38.3503 14.454V7.356C38.3503 6.70267 38.4623 6.12867 38.6863 5.634C38.9103 5.13933 39.2416 4.75667 39.6803 4.486C40.1189 4.206 40.6556 4.066 41.2903 4.066C41.4489 4.066 41.5796 4.11267 41.6823 4.206C41.7849 4.29933 41.8363 4.416 41.8363 4.556C41.8363 4.696 41.7849 4.81267 41.6823 4.906C41.5796 4.99933 41.4489 5.046 41.2903 5.046C40.8703 5.046 40.5203 5.144 40.2403 5.34C39.9696 5.52667 39.7643 5.79267 39.6243 6.138C39.4936 6.474 39.4283 6.86133 39.4283 7.3V14.454C39.4283 14.622 39.3769 14.7573 39.2743 14.86C39.1809 14.9533 39.0456 15 38.8683 15ZM37.4543 8.56C37.3049 8.56 37.1836 8.518 37.0903 8.434C37.0063 8.34067 36.9643 8.22867 36.9643 8.098C36.9643 7.958 37.0063 7.846 37.0903 7.762C37.1836 7.66867 37.3049 7.622 37.4543 7.622H41.1083C41.2576 7.622 41.3743 7.66867 41.4583 7.762C41.5516 7.846 41.5983 7.958 41.5983 8.098C41.5983 8.22867 41.5516 8.34067 41.4583 8.434C41.3743 8.518 41.2576 8.56 41.1083 8.56H37.4543ZM46.2418 15.07C45.4858 15.07 44.8138 14.9067 44.2258 14.58C43.6471 14.244 43.1898 13.782 42.8538 13.194C42.5271 12.606 42.3638 11.934 42.3638 11.178C42.3638 10.4127 42.5178 9.74067 42.8258 9.162C43.1431 8.574 43.5771 8.112 44.1278 7.776C44.6784 7.44 45.3131 7.272 46.0318 7.272C46.7411 7.272 47.3571 7.43533 47.8798 7.762C48.4118 8.07933 48.8224 8.52267 49.1118 9.092C49.4011 9.66133 49.5458 10.31 49.5458 11.038C49.5458 11.1873 49.4991 11.3087 49.4058 11.402C49.3124 11.486 49.1911 11.528 49.0418 11.528H43.0918V10.632H49.1538L48.5518 11.066C48.5611 10.5247 48.4631 10.0393 48.2578 9.61C48.0524 9.18067 47.7584 8.84467 47.3758 8.602C47.0024 8.35933 46.5544 8.238 46.0318 8.238C45.4998 8.238 45.0331 8.364 44.6318 8.616C44.2304 8.868 43.9178 9.218 43.6938 9.666C43.4791 10.1047 43.3718 10.6087 43.3718 11.178C43.3718 11.7473 43.4931 12.2513 43.7358 12.69C43.9878 13.1287 44.3284 13.474 44.7578 13.726C45.1871 13.978 45.6818 14.104 46.2418 14.104C46.5778 14.104 46.9138 14.048 47.2498 13.936C47.5951 13.8147 47.8704 13.6653 48.0758 13.488C48.1784 13.404 48.2951 13.362 48.4258 13.362C48.5564 13.3527 48.6684 13.3853 48.7618 13.46C48.8831 13.572 48.9438 13.6933 48.9438 13.824C48.9531 13.9547 48.9018 14.0667 48.7898 14.16C48.4818 14.4213 48.0898 14.6407 47.6138 14.818C47.1378 14.986 46.6804 15.07 46.2418 15.07ZM51.8174 10.282C51.8454 9.70333 51.9947 9.18533 52.2654 8.728C52.5454 8.27067 52.9047 7.91133 53.3434 7.65C53.7914 7.38867 54.286 7.258 54.8274 7.258C55.2567 7.258 55.588 7.31867 55.8214 7.44C56.0547 7.56133 56.1434 7.73867 56.0874 7.972C56.05 8.112 55.9847 8.20533 55.8914 8.252C55.8074 8.29867 55.7 8.31733 55.5694 8.308C55.448 8.29867 55.308 8.28933 55.1494 8.28C54.6267 8.23333 54.16 8.28933 53.7494 8.448C53.348 8.59733 53.026 8.83067 52.7834 9.148C52.55 9.46533 52.4334 9.84333 52.4334 10.282H51.8174ZM51.9014 15C51.7334 15 51.6027 14.9533 51.5094 14.86C51.416 14.7667 51.3694 14.636 51.3694 14.468V7.874C51.3694 7.706 51.416 7.57533 51.5094 7.482C51.6027 7.38867 51.7334 7.342 51.9014 7.342C52.0694 7.342 52.2 7.38867 52.2934 7.482C52.3867 7.57533 52.4334 7.706 52.4334 7.874V14.468C52.4334 14.636 52.3867 14.7667 52.2934 14.86C52.2 14.9533 52.0694 15 51.9014 15ZM58.2295 10.282C58.2575 9.70333 58.4068 9.18533 58.6775 8.728C58.9575 8.27067 59.3168 7.91133 59.7555 7.65C60.2035 7.38867 60.6982 7.258 61.2395 7.258C61.6688 7.258 62.0002 7.31867 62.2335 7.44C62.4668 7.56133 62.5555 7.73867 62.4995 7.972C62.4622 8.112 62.3968 8.20533 62.3035 8.252C62.2195 8.29867 62.1122 8.31733 61.9815 8.308C61.8602 8.29867 61.7202 8.28933 61.5615 8.28C61.0388 8.23333 60.5722 8.28933 60.1615 8.448C59.7602 8.59733 59.4382 8.83067 59.1955 9.148C58.9622 9.46533 58.8455 9.84333 58.8455 10.282H58.2295ZM58.3135 15C58.1455 15 58.0148 14.9533 57.9215 14.86C57.8282 14.7667 57.7815 14.636 57.7815 14.468V7.874C57.7815 7.706 57.8282 7.57533 57.9215 7.482C58.0148 7.38867 58.1455 7.342 58.3135 7.342C58.4815 7.342 58.6122 7.38867 58.7055 7.482C58.7988 7.57533 58.8455 7.706 58.8455 7.874V14.468C58.8455 14.636 58.7988 14.7667 58.7055 14.86C58.6122 14.9533 58.4815 15 58.3135 15ZM67.105 15.07C66.349 15.07 65.677 14.9067 65.089 14.58C64.5104 14.244 64.053 13.782 63.717 13.194C63.3904 12.606 63.227 11.934 63.227 11.178C63.227 10.4127 63.381 9.74067 63.689 9.162C64.0064 8.574 64.4404 8.112 64.991 7.776C65.5417 7.44 66.1764 7.272 66.895 7.272C67.6044 7.272 68.2204 7.43533 68.743 7.762C69.275 8.07933 69.6857 8.52267 69.975 9.092C70.2644 9.66133 70.409 10.31 70.409 11.038C70.409 11.1873 70.3624 11.3087 70.269 11.402C70.1757 11.486 70.0544 11.528 69.905 11.528H63.955V10.632H70.017L69.415 11.066C69.4244 10.5247 69.3264 10.0393 69.121 9.61C68.9157 9.18067 68.6217 8.84467 68.239 8.602C67.8657 8.35933 67.4177 8.238 66.895 8.238C66.363 8.238 65.8964 8.364 65.495 8.616C65.0937 8.868 64.781 9.218 64.557 9.666C64.3424 10.1047 64.235 10.6087 64.235 11.178C64.235 11.7473 64.3564 12.2513 64.599 12.69C64.851 13.1287 65.1917 13.474 65.621 13.726C66.0504 13.978 66.545 14.104 67.105 14.104C67.441 14.104 67.777 14.048 68.113 13.936C68.4584 13.8147 68.7337 13.6653 68.939 13.488C69.0417 13.404 69.1584 13.362 69.289 13.362C69.4197 13.3527 69.5317 13.3853 69.625 13.46C69.7464 13.572 69.807 13.6933 69.807 13.824C69.8164 13.9547 69.765 14.0667 69.653 14.16C69.345 14.4213 68.953 14.6407 68.477 14.818C68.001 14.986 67.5437 15.07 67.105 15.07ZM75.4452 15.07C74.7079 15.07 74.0452 14.902 73.4572 14.566C72.8692 14.2207 72.4026 13.754 72.0572 13.166C71.7212 12.578 71.5532 11.9107 71.5532 11.164C71.5532 10.4267 71.7166 9.764 72.0432 9.176C72.3792 8.588 72.8319 8.126 73.4012 7.79C73.9706 7.44467 74.6146 7.272 75.3332 7.272C75.9586 7.272 76.5232 7.40733 77.0272 7.678C77.5312 7.93933 77.9372 8.28933 78.2452 8.728V4.612C78.2452 4.444 78.2966 4.31333 78.3992 4.22C78.5019 4.11733 78.6326 4.066 78.7912 4.066C78.9499 4.066 79.0806 4.11733 79.1832 4.22C79.2859 4.31333 79.3372 4.444 79.3372 4.612V11.22C79.3186 11.948 79.1366 12.606 78.7912 13.194C78.4552 13.7727 77.9932 14.23 77.4052 14.566C76.8266 14.902 76.1732 15.07 75.4452 15.07ZM75.4452 14.09C75.9866 14.09 76.4672 13.964 76.8872 13.712C77.3166 13.4507 77.6526 13.1007 77.8952 12.662C78.1472 12.2233 78.2732 11.724 78.2732 11.164C78.2732 10.6133 78.1472 10.1187 77.8952 9.68C77.6526 9.232 77.3166 8.882 76.8872 8.63C76.4672 8.378 75.9866 8.252 75.4452 8.252C74.9132 8.252 74.4326 8.378 74.0032 8.63C73.5739 8.882 73.2332 9.232 72.9812 9.68C72.7292 10.1187 72.6032 10.6133 72.6032 11.164C72.6032 11.724 72.7292 12.2233 72.9812 12.662C73.2332 13.1007 73.5739 13.4507 74.0032 13.712C74.4326 13.964 74.9132 14.09 75.4452 14.09Z" fill="white"/>
</svg>
