<svg width="100" height="20" viewBox="0 0 100 20" fill="none" xmlns="http://www.w3.org/2000/svg">
<rect width="100" height="20" rx="10" fill="#C9C900" fill-opacity="0.55"/>
<rect x="0.5" y="0.5" width="99" height="19" rx="9.5" stroke="#C9C900" stroke-opacity="0.55"/>
<path d="M24.7978 15.14C23.9858 15.14 23.2391 15 22.5578 14.72C21.8764 14.44 21.2838 14.048 20.7798 13.544C20.2851 13.04 19.8978 12.4473 19.6178 11.766C19.3471 11.0847 19.2118 10.338 19.2118 9.526C19.2118 8.72333 19.3471 7.98133 19.6178 7.3C19.8978 6.61867 20.2851 6.026 20.7798 5.522C21.2838 5.018 21.8764 4.626 22.5578 4.346C23.2391 4.066 23.9858 3.926 24.7978 3.926C25.6004 3.926 26.3424 4.066 27.0238 4.346C27.7051 4.626 28.2978 5.018 28.8018 5.522C29.3058 6.026 29.6931 6.61867 29.9638 7.3C30.2438 7.98133 30.3838 8.72333 30.3838 9.526C30.3838 10.338 30.2438 11.0847 29.9638 11.766C29.6931 12.4473 29.3058 13.04 28.8018 13.544C28.2978 14.048 27.7051 14.44 27.0238 14.72C26.3424 15 25.6004 15.14 24.7978 15.14ZM24.7978 14.104C25.4418 14.104 26.0391 13.992 26.5898 13.768C27.1404 13.5347 27.6164 13.2127 28.0178 12.802C28.4284 12.382 28.7458 11.8967 28.9698 11.346C29.1938 10.786 29.3058 10.1793 29.3058 9.526C29.3058 8.882 29.1938 8.28467 28.9698 7.734C28.7458 7.174 28.4284 6.68867 28.0178 6.278C27.6164 5.858 27.1404 5.536 26.5898 5.312C26.0391 5.07867 25.4418 4.962 24.7978 4.962C24.1444 4.962 23.5424 5.07867 22.9918 5.312C22.4411 5.536 21.9604 5.858 21.5498 6.278C21.1484 6.68867 20.8358 7.174 20.6118 7.734C20.3878 8.28467 20.2758 8.882 20.2758 9.526C20.2758 10.1793 20.3878 10.786 20.6118 11.346C20.8358 11.8967 21.1484 12.382 21.5498 12.802C21.9604 13.2127 22.4411 13.5347 22.9918 13.768C23.5424 13.992 24.1444 14.104 24.7978 14.104ZM39.0623 15C38.9037 15 38.773 14.9487 38.6703 14.846C38.5677 14.7433 38.5163 14.6173 38.5163 14.468V10.828C38.5163 10.2493 38.4043 9.77333 38.1803 9.4C37.9657 9.02667 37.667 8.74667 37.2843 8.56C36.911 8.37333 36.4863 8.28 36.0103 8.28C35.553 8.28 35.1377 8.36867 34.7643 8.546C34.4003 8.72333 34.111 8.966 33.8963 9.274C33.6817 9.582 33.5743 9.932 33.5743 10.324H32.8043C32.823 9.736 32.9817 9.21333 33.2803 8.756C33.579 8.28933 33.9757 7.92533 34.4703 7.664C34.965 7.39333 35.5157 7.258 36.1223 7.258C36.785 7.258 37.3777 7.398 37.9003 7.678C38.423 7.94867 38.8337 8.35 39.1323 8.882C39.4403 9.414 39.5943 10.0627 39.5943 10.828V14.468C39.5943 14.6173 39.543 14.7433 39.4403 14.846C39.3377 14.9487 39.2117 15 39.0623 15ZM33.0423 15C32.8743 15 32.739 14.9533 32.6363 14.86C32.543 14.7573 32.4963 14.6267 32.4963 14.468V7.888C32.4963 7.72 32.543 7.58933 32.6363 7.496C32.739 7.39333 32.8743 7.342 33.0423 7.342C33.201 7.342 33.327 7.39333 33.4203 7.496C33.523 7.58933 33.5743 7.72 33.5743 7.888V14.468C33.5743 14.6267 33.523 14.7573 33.4203 14.86C33.327 14.9533 33.201 15 33.0423 15ZM45.3449 15.07C44.6076 15.07 43.9543 14.9067 43.3849 14.58C42.8156 14.244 42.3676 13.782 42.0409 13.194C41.7236 12.606 41.5649 11.934 41.5649 11.178C41.5649 10.4127 41.7329 9.736 42.0689 9.148C42.4049 8.56 42.8669 8.10267 43.4549 7.776C44.0429 7.44 44.7103 7.272 45.4569 7.272C46.2129 7.272 46.8803 7.44 47.4589 7.776C48.0469 8.10267 48.5043 8.56 48.8309 9.148C49.1669 9.736 49.3396 10.4127 49.3489 11.178L48.7189 11.514C48.7189 12.2047 48.5743 12.8207 48.2849 13.362C47.9956 13.894 47.5943 14.314 47.0809 14.622C46.5769 14.9207 45.9983 15.07 45.3449 15.07ZM45.4849 18.024C44.7476 18.024 44.0989 17.884 43.5389 17.604C42.9789 17.3333 42.5169 16.96 42.1529 16.484C42.0503 16.372 42.0036 16.2507 42.0129 16.12C42.0316 15.9893 42.1016 15.882 42.2229 15.798C42.3443 15.714 42.4796 15.686 42.6289 15.714C42.7783 15.742 42.8949 15.812 42.9789 15.924C43.2496 16.26 43.5949 16.5307 44.0149 16.736C44.4443 16.9413 44.9389 17.044 45.4989 17.044C46.0216 17.044 46.4929 16.918 46.9129 16.666C47.3329 16.414 47.6643 16.0593 47.9069 15.602C48.1589 15.1447 48.2849 14.608 48.2849 13.992V11.864L48.6909 11.052L49.3489 11.178V14.034C49.3489 14.79 49.1809 15.4667 48.8449 16.064C48.5089 16.6707 48.0516 17.1467 47.4729 17.492C46.8943 17.8467 46.2316 18.024 45.4849 18.024ZM45.4569 14.09C46.0076 14.09 46.4929 13.9687 46.9129 13.726C47.3423 13.474 47.6783 13.1287 47.9209 12.69C48.1636 12.2513 48.2849 11.7473 48.2849 11.178C48.2849 10.6087 48.1636 10.1047 47.9209 9.666C47.6783 9.218 47.3423 8.87267 46.9129 8.63C46.4929 8.378 46.0076 8.252 45.4569 8.252C44.9063 8.252 44.4163 8.378 43.9869 8.63C43.5576 8.87267 43.2216 9.218 42.9789 9.666C42.7363 10.1047 42.6149 10.6087 42.6149 11.178C42.6149 11.7473 42.7363 12.2513 42.9789 12.69C43.2216 13.1287 43.5576 13.474 43.9869 13.726C44.4163 13.9687 44.9063 14.09 45.4569 14.09ZM54.9315 15.07C54.1849 15.07 53.5175 14.902 52.9295 14.566C52.3415 14.23 51.8795 13.768 51.5435 13.18C51.2075 12.592 51.0395 11.9247 51.0395 11.178C51.0395 10.422 51.2075 9.75 51.5435 9.162C51.8795 8.574 52.3415 8.112 52.9295 7.776C53.5175 7.44 54.1849 7.272 54.9315 7.272C55.6782 7.272 56.3409 7.44 56.9195 7.776C57.5075 8.112 57.9695 8.574 58.3055 9.162C58.6415 9.75 58.8142 10.422 58.8235 11.178C58.8235 11.9247 58.6509 12.592 58.3055 13.18C57.9695 13.768 57.5075 14.23 56.9195 14.566C56.3409 14.902 55.6782 15.07 54.9315 15.07ZM54.9315 14.09C55.4729 14.09 55.9582 13.964 56.3875 13.712C56.8169 13.46 57.1529 13.1147 57.3955 12.676C57.6382 12.2373 57.7595 11.738 57.7595 11.178C57.7595 10.618 57.6382 10.1187 57.3955 9.68C57.1529 9.232 56.8169 8.882 56.3875 8.63C55.9582 8.378 55.4729 8.252 54.9315 8.252C54.3902 8.252 53.9049 8.378 53.4755 8.63C53.0462 8.882 52.7055 9.232 52.4535 9.68C52.2109 10.1187 52.0895 10.618 52.0895 11.178C52.0895 11.738 52.2109 12.2373 52.4535 12.676C52.7055 13.1147 53.0462 13.46 53.4755 13.712C53.9049 13.964 54.3902 14.09 54.9315 14.09ZM61.6902 15C61.5222 15 61.3868 14.9533 61.2842 14.86C61.1908 14.7573 61.1442 14.622 61.1442 14.454V7.888C61.1442 7.72 61.1908 7.58933 61.2842 7.496C61.3868 7.39333 61.5222 7.342 61.6902 7.342C61.8488 7.342 61.9748 7.39333 62.0682 7.496C62.1708 7.58933 62.2222 7.72 62.2222 7.888V14.454C62.2222 14.622 62.1708 14.7573 62.0682 14.86C61.9748 14.9533 61.8488 15 61.6902 15ZM61.6762 5.886C61.4708 5.886 61.2935 5.81133 61.1442 5.662C60.9948 5.51267 60.9202 5.33067 60.9202 5.116C60.9202 4.88267 60.9948 4.70067 61.1442 4.57C61.3028 4.43 61.4848 4.36 61.6902 4.36C61.8862 4.36 62.0588 4.43 62.2082 4.57C62.3668 4.70067 62.4462 4.88267 62.4462 5.116C62.4462 5.33067 62.3715 5.51267 62.2222 5.662C62.0728 5.81133 61.8908 5.886 61.6762 5.886ZM71.533 15C71.3744 15 71.2437 14.9487 71.141 14.846C71.0384 14.7433 70.987 14.6173 70.987 14.468V10.828C70.987 10.2493 70.875 9.77333 70.651 9.4C70.4364 9.02667 70.1377 8.74667 69.755 8.56C69.3817 8.37333 68.957 8.28 68.481 8.28C68.0237 8.28 67.6084 8.36867 67.235 8.546C66.871 8.72333 66.5817 8.966 66.367 9.274C66.1524 9.582 66.045 9.932 66.045 10.324H65.275C65.2937 9.736 65.4524 9.21333 65.751 8.756C66.0497 8.28933 66.4464 7.92533 66.941 7.664C67.4357 7.39333 67.9864 7.258 68.593 7.258C69.2557 7.258 69.8484 7.398 70.371 7.678C70.8937 7.94867 71.3044 8.35 71.603 8.882C71.911 9.414 72.065 10.0627 72.065 10.828V14.468C72.065 14.6173 72.0137 14.7433 71.911 14.846C71.8084 14.9487 71.6824 15 71.533 15ZM65.513 15C65.345 15 65.2097 14.9533 65.107 14.86C65.0137 14.7573 64.967 14.6267 64.967 14.468V7.888C64.967 7.72 65.0137 7.58933 65.107 7.496C65.2097 7.39333 65.345 7.342 65.513 7.342C65.6717 7.342 65.7977 7.39333 65.891 7.496C65.9937 7.58933 66.045 7.72 66.045 7.888V14.468C66.045 14.6267 65.9937 14.7573 65.891 14.86C65.7977 14.9533 65.6717 15 65.513 15ZM77.8156 15.07C77.0783 15.07 76.425 14.9067 75.8556 14.58C75.2863 14.244 74.8383 13.782 74.5116 13.194C74.1943 12.606 74.0356 11.934 74.0356 11.178C74.0356 10.4127 74.2036 9.736 74.5396 9.148C74.8756 8.56 75.3376 8.10267 75.9256 7.776C76.5136 7.44 77.181 7.272 77.9276 7.272C78.6836 7.272 79.351 7.44 79.9296 7.776C80.5176 8.10267 80.975 8.56 81.3016 9.148C81.6376 9.736 81.8103 10.4127 81.8196 11.178L81.1896 11.514C81.1896 12.2047 81.045 12.8207 80.7556 13.362C80.4663 13.894 80.065 14.314 79.5516 14.622C79.0476 14.9207 78.469 15.07 77.8156 15.07ZM77.9556 18.024C77.2183 18.024 76.5696 17.884 76.0096 17.604C75.4496 17.3333 74.9876 16.96 74.6236 16.484C74.521 16.372 74.4743 16.2507 74.4836 16.12C74.5023 15.9893 74.5723 15.882 74.6936 15.798C74.815 15.714 74.9503 15.686 75.0996 15.714C75.249 15.742 75.3656 15.812 75.4496 15.924C75.7203 16.26 76.0656 16.5307 76.4856 16.736C76.915 16.9413 77.4096 17.044 77.9696 17.044C78.4923 17.044 78.9636 16.918 79.3836 16.666C79.8036 16.414 80.135 16.0593 80.3776 15.602C80.6296 15.1447 80.7556 14.608 80.7556 13.992V11.864L81.1616 11.052L81.8196 11.178V14.034C81.8196 14.79 81.6516 15.4667 81.3156 16.064C80.9796 16.6707 80.5223 17.1467 79.9436 17.492C79.365 17.8467 78.7023 18.024 77.9556 18.024ZM77.9276 14.09C78.4783 14.09 78.9636 13.9687 79.3836 13.726C79.813 13.474 80.149 13.1287 80.3916 12.69C80.6343 12.2513 80.7556 11.7473 80.7556 11.178C80.7556 10.6087 80.6343 10.1047 80.3916 9.666C80.149 9.218 79.813 8.87267 79.3836 8.63C78.9636 8.378 78.4783 8.252 77.9276 8.252C77.377 8.252 76.887 8.378 76.4576 8.63C76.0283 8.87267 75.6923 9.218 75.4496 9.666C75.207 10.1047 75.0856 10.6087 75.0856 11.178C75.0856 11.7473 75.207 12.2513 75.4496 12.69C75.6923 13.1287 76.0283 13.474 76.4576 13.726C76.887 13.9687 77.377 14.09 77.9276 14.09Z" fill="white"/>
</svg>
