<svg width="100" height="20" viewBox="0 0 100 20" fill="none" xmlns="http://www.w3.org/2000/svg">
<rect width="100" height="20" rx="10" fill="#008000" fill-opacity="0.55"/>
<rect x="0.5" y="0.5" width="99" height="19" rx="9.5" stroke="#008000" stroke-opacity="0.55"/>
<path d="M17.4117 15.14C16.6557 15.14 15.9463 14.9953 15.2837 14.706C14.6303 14.4167 14.0517 14.0153 13.5477 13.502C13.053 12.9793 12.6657 12.382 12.3857 11.71C12.1057 11.0287 11.9657 10.3007 11.9657 9.526C11.9657 8.76067 12.101 8.042 12.3717 7.37C12.6517 6.68867 13.039 6.09133 13.5337 5.578C14.0377 5.06467 14.6163 4.66333 15.2697 4.374C15.9323 4.07533 16.6463 3.926 17.4117 3.926C18.0837 3.926 18.695 4.024 19.2457 4.22C19.7963 4.416 20.3283 4.72867 20.8417 5.158C20.9257 5.22333 20.9723 5.30267 20.9817 5.396C21.0003 5.48 20.991 5.564 20.9537 5.648C20.9163 5.72267 20.8603 5.77867 20.7857 5.816C20.767 5.89067 20.7203 5.94667 20.6457 5.984C20.571 6.02133 20.4823 6.03533 20.3797 6.026C20.2863 6.01667 20.193 5.97467 20.0997 5.9C19.7357 5.58267 19.339 5.34933 18.9097 5.2C18.4803 5.04133 17.981 4.962 17.4117 4.962C16.805 4.962 16.2357 5.08333 15.7037 5.326C15.181 5.56867 14.719 5.9 14.3177 6.32C13.9163 6.74 13.599 7.22533 13.3657 7.776C13.1417 8.32667 13.0297 8.91 13.0297 9.526C13.0297 10.1607 13.1417 10.7533 13.3657 11.304C13.599 11.8547 13.9163 12.34 14.3177 12.76C14.719 13.18 15.181 13.5113 15.7037 13.754C16.2357 13.9873 16.805 14.104 17.4117 14.104C17.925 14.104 18.4103 14.02 18.8677 13.852C19.325 13.684 19.759 13.4413 20.1697 13.124C20.2817 13.0307 20.3983 12.9933 20.5197 13.012C20.6503 13.0307 20.7623 13.0867 20.8557 13.18C20.949 13.2733 20.9957 13.3947 20.9957 13.544C20.9957 13.6187 20.9817 13.6887 20.9537 13.754C20.935 13.81 20.8977 13.8707 20.8417 13.936C20.3657 14.3747 19.8337 14.6873 19.2457 14.874C18.6577 15.0513 18.0463 15.14 17.4117 15.14ZM26.0292 15.07C25.2825 15.07 24.6152 14.902 24.0272 14.566C23.4392 14.23 22.9772 13.768 22.6412 13.18C22.3052 12.592 22.1372 11.9247 22.1372 11.178C22.1372 10.422 22.3052 9.75 22.6412 9.162C22.9772 8.574 23.4392 8.112 24.0272 7.776C24.6152 7.44 25.2825 7.272 26.0292 7.272C26.7759 7.272 27.4385 7.44 28.0172 7.776C28.6052 8.112 29.0672 8.574 29.4032 9.162C29.7392 9.75 29.9119 10.422 29.9212 11.178C29.9212 11.9247 29.7485 12.592 29.4032 13.18C29.0672 13.768 28.6052 14.23 28.0172 14.566C27.4385 14.902 26.7759 15.07 26.0292 15.07ZM26.0292 14.09C26.5705 14.09 27.0559 13.964 27.4852 13.712C27.9145 13.46 28.2505 13.1147 28.4932 12.676C28.7359 12.2373 28.8572 11.738 28.8572 11.178C28.8572 10.618 28.7359 10.1187 28.4932 9.68C28.2505 9.232 27.9145 8.882 27.4852 8.63C27.0559 8.378 26.5705 8.252 26.0292 8.252C25.4879 8.252 25.0025 8.378 24.5732 8.63C24.1439 8.882 23.8032 9.232 23.5512 9.68C23.3085 10.1187 23.1872 10.618 23.1872 11.178C23.1872 11.738 23.3085 12.2373 23.5512 12.676C23.8032 13.1147 24.1439 13.46 24.5732 13.712C25.0025 13.964 25.4879 14.09 26.0292 14.09ZM42.3638 15C42.2051 15 42.0745 14.9533 41.9718 14.86C41.8691 14.7573 41.8178 14.6267 41.8178 14.468V10.436C41.8178 9.77333 41.6451 9.25067 41.2998 8.868C40.9545 8.476 40.5111 8.28 39.9698 8.28C39.3911 8.28 38.9151 8.476 38.5418 8.868C38.1778 9.25067 38.0005 9.764 38.0098 10.408H37.0438C37.0531 9.78267 37.1885 9.232 37.4498 8.756C37.7111 8.28 38.0705 7.91133 38.5278 7.65C38.9851 7.38867 39.5031 7.258 40.0818 7.258C40.6325 7.258 41.1178 7.38867 41.5378 7.65C41.9671 7.91133 42.2985 8.28 42.5318 8.756C42.7745 9.232 42.8958 9.792 42.8958 10.436V14.468C42.8958 14.6267 42.8445 14.7573 42.7418 14.86C42.6485 14.9533 42.5225 15 42.3638 15ZM32.5638 15C32.3958 15 32.2605 14.9533 32.1578 14.86C32.0645 14.7573 32.0178 14.6267 32.0178 14.468V7.888C32.0178 7.72933 32.0645 7.59867 32.1578 7.496C32.2605 7.39333 32.3958 7.342 32.5638 7.342C32.7225 7.342 32.8485 7.39333 32.9418 7.496C33.0445 7.59867 33.0958 7.72933 33.0958 7.888V14.468C33.0958 14.6267 33.0445 14.7573 32.9418 14.86C32.8485 14.9533 32.7225 15 32.5638 15ZM37.4778 15C37.3191 15 37.1885 14.9533 37.0858 14.86C36.9831 14.7573 36.9318 14.6267 36.9318 14.468V10.436C36.9318 9.77333 36.7591 9.25067 36.4138 8.868C36.0685 8.476 35.6251 8.28 35.0838 8.28C34.5051 8.28 34.0291 8.47133 33.6558 8.854C33.2825 9.22733 33.0958 9.71733 33.0958 10.324H32.3258C32.3445 9.72667 32.4751 9.19933 32.7178 8.742C32.9698 8.27533 33.3105 7.91133 33.7398 7.65C34.1691 7.38867 34.6545 7.258 35.1958 7.258C35.7465 7.258 36.2318 7.38867 36.6518 7.65C37.0811 7.91133 37.4125 8.28 37.6458 8.756C37.8885 9.232 38.0098 9.792 38.0098 10.436V14.468C38.0098 14.6267 37.9585 14.7573 37.8558 14.86C37.7625 14.9533 37.6365 15 37.4778 15ZM45.8255 18.276C45.6575 18.276 45.5222 18.2247 45.4195 18.122C45.3262 18.0287 45.2795 17.898 45.2795 17.73V11.122C45.2889 10.394 45.4615 9.74067 45.7975 9.162C46.1429 8.574 46.6049 8.112 47.1835 7.776C47.7715 7.44 48.4295 7.272 49.1575 7.272C49.9042 7.272 50.5715 7.44467 51.1595 7.79C51.7475 8.126 52.2095 8.588 52.5455 9.176C52.8909 9.764 53.0635 10.4313 53.0635 11.178C53.0635 11.9153 52.8955 12.578 52.5595 13.166C52.2329 13.754 51.7849 14.2207 51.2155 14.566C50.6462 14.902 50.0022 15.07 49.2835 15.07C48.6582 15.07 48.0889 14.9393 47.5755 14.678C47.0715 14.4073 46.6655 14.0527 46.3575 13.614V17.73C46.3575 17.898 46.3062 18.0287 46.2035 18.122C46.1102 18.2247 45.9842 18.276 45.8255 18.276ZM49.1575 14.09C49.6989 14.09 50.1842 13.964 50.6135 13.712C51.0429 13.46 51.3789 13.1147 51.6215 12.676C51.8735 12.228 51.9995 11.7287 51.9995 11.178C51.9995 10.618 51.8735 10.1187 51.6215 9.68C51.3789 9.24133 51.0429 8.896 50.6135 8.644C50.1842 8.38267 49.6989 8.252 49.1575 8.252C48.6255 8.252 48.1449 8.38267 47.7155 8.644C47.2862 8.896 46.9502 9.24133 46.7075 9.68C46.4649 10.1187 46.3435 10.618 46.3435 11.178C46.3435 11.7287 46.4649 12.228 46.7075 12.676C46.9502 13.1147 47.2862 13.46 47.7155 13.712C48.1449 13.964 48.6255 14.09 49.1575 14.09ZM56.83 15C56.4566 15 56.1206 14.8973 55.822 14.692C55.5326 14.4867 55.304 14.202 55.136 13.838C54.9773 13.474 54.898 13.054 54.898 12.578V4.598C54.898 4.43933 54.9446 4.31333 55.038 4.22C55.1406 4.11733 55.2713 4.066 55.43 4.066C55.5886 4.066 55.7146 4.11733 55.808 4.22C55.9106 4.31333 55.962 4.43933 55.962 4.598V12.578C55.962 12.9793 56.0413 13.306 56.2 13.558C56.368 13.81 56.578 13.936 56.83 13.936H57.18C57.32 13.936 57.432 13.9873 57.516 14.09C57.6 14.1833 57.642 14.3093 57.642 14.468C57.642 14.6267 57.5813 14.7573 57.46 14.86C57.348 14.9533 57.1986 15 57.012 15H56.83ZM62.1773 15.07C61.4213 15.07 60.7493 14.9067 60.1613 14.58C59.5826 14.244 59.1253 13.782 58.7893 13.194C58.4626 12.606 58.2993 11.934 58.2993 11.178C58.2993 10.4127 58.4533 9.74067 58.7613 9.162C59.0786 8.574 59.5126 8.112 60.0633 7.776C60.614 7.44 61.2486 7.272 61.9673 7.272C62.6766 7.272 63.2926 7.43533 63.8153 7.762C64.3473 8.07933 64.758 8.52267 65.0473 9.092C65.3366 9.66133 65.4813 10.31 65.4813 11.038C65.4813 11.1873 65.4346 11.3087 65.3413 11.402C65.248 11.486 65.1266 11.528 64.9773 11.528H59.0273V10.632H65.0893L64.4873 11.066C64.4966 10.5247 64.3986 10.0393 64.1933 9.61C63.988 9.18067 63.694 8.84467 63.3113 8.602C62.938 8.35933 62.49 8.238 61.9673 8.238C61.4353 8.238 60.9686 8.364 60.5673 8.616C60.166 8.868 59.8533 9.218 59.6293 9.666C59.4146 10.1047 59.3073 10.6087 59.3073 11.178C59.3073 11.7473 59.4286 12.2513 59.6713 12.69C59.9233 13.1287 60.264 13.474 60.6933 13.726C61.1226 13.978 61.6173 14.104 62.1773 14.104C62.5133 14.104 62.8493 14.048 63.1853 13.936C63.5306 13.8147 63.806 13.6653 64.0113 13.488C64.114 13.404 64.2306 13.362 64.3613 13.362C64.492 13.3527 64.604 13.3853 64.6973 13.46C64.8186 13.572 64.8793 13.6933 64.8793 13.824C64.8886 13.9547 64.8373 14.0667 64.7253 14.16C64.4173 14.4213 64.0253 14.6407 63.5493 14.818C63.0733 14.986 62.616 15.07 62.1773 15.07ZM70.3009 15C69.8063 15 69.3629 14.8833 68.9709 14.65C68.5883 14.4167 68.2849 14.0993 68.0609 13.698C67.8369 13.2873 67.7249 12.8207 67.7249 12.298V5.452C67.7249 5.29333 67.7716 5.16267 67.8649 5.06C67.9676 4.95733 68.0983 4.906 68.2569 4.906C68.4156 4.906 68.5463 4.95733 68.6489 5.06C68.7516 5.16267 68.8029 5.29333 68.8029 5.452V12.298C68.8029 12.774 68.9429 13.166 69.2229 13.474C69.5029 13.7727 69.8623 13.922 70.3009 13.922H70.6789C70.8283 13.922 70.9496 13.9733 71.0429 14.076C71.1363 14.1787 71.1829 14.3093 71.1829 14.468C71.1829 14.6267 71.1269 14.7573 71.0149 14.86C70.9029 14.9533 70.7629 15 70.5949 15H70.3009ZM66.8149 8.56C66.6749 8.56 66.5583 8.518 66.4649 8.434C66.3716 8.34067 66.3249 8.22867 66.3249 8.098C66.3249 7.958 66.3716 7.846 66.4649 7.762C66.5583 7.66867 66.6749 7.622 66.8149 7.622H70.3849C70.5249 7.622 70.6416 7.66867 70.7349 7.762C70.8283 7.846 70.8749 7.958 70.8749 8.098C70.8749 8.22867 70.8283 8.34067 70.7349 8.434C70.6416 8.518 70.5249 8.56 70.3849 8.56H66.8149ZM76.4097 15.07C75.6537 15.07 74.9817 14.9067 74.3937 14.58C73.8151 14.244 73.3577 13.782 73.0217 13.194C72.6951 12.606 72.5317 11.934 72.5317 11.178C72.5317 10.4127 72.6857 9.74067 72.9937 9.162C73.3111 8.574 73.7451 8.112 74.2957 7.776C74.8464 7.44 75.4811 7.272 76.1997 7.272C76.9091 7.272 77.5251 7.43533 78.0477 7.762C78.5797 8.07933 78.9904 8.52267 79.2797 9.092C79.5691 9.66133 79.7137 10.31 79.7137 11.038C79.7137 11.1873 79.6671 11.3087 79.5737 11.402C79.4804 11.486 79.3591 11.528 79.2097 11.528H73.2597V10.632H79.3217L78.7197 11.066C78.7291 10.5247 78.6311 10.0393 78.4257 9.61C78.2204 9.18067 77.9264 8.84467 77.5437 8.602C77.1704 8.35933 76.7224 8.238 76.1997 8.238C75.6677 8.238 75.2011 8.364 74.7997 8.616C74.3984 8.868 74.0857 9.218 73.8617 9.666C73.6471 10.1047 73.5397 10.6087 73.5397 11.178C73.5397 11.7473 73.6611 12.2513 73.9037 12.69C74.1557 13.1287 74.4964 13.474 74.9257 13.726C75.3551 13.978 75.8497 14.104 76.4097 14.104C76.7457 14.104 77.0817 14.048 77.4177 13.936C77.7631 13.8147 78.0384 13.6653 78.2437 13.488C78.3464 13.404 78.4631 13.362 78.5937 13.362C78.7244 13.3527 78.8364 13.3853 78.9297 13.46C79.0511 13.572 79.1117 13.6933 79.1117 13.824C79.1211 13.9547 79.0697 14.0667 78.9577 14.16C78.6497 14.4213 78.2577 14.6407 77.7817 14.818C77.3057 14.986 76.8484 15.07 76.4097 15.07ZM84.7499 15.07C84.0126 15.07 83.3499 14.902 82.7619 14.566C82.1739 14.2207 81.7072 13.754 81.3619 13.166C81.0259 12.578 80.8579 11.9107 80.8579 11.164C80.8579 10.4267 81.0212 9.764 81.3479 9.176C81.6839 8.588 82.1366 8.126 82.7059 7.79C83.2752 7.44467 83.9192 7.272 84.6379 7.272C85.2632 7.272 85.8279 7.40733 86.3319 7.678C86.8359 7.93933 87.2419 8.28933 87.5499 8.728V4.612C87.5499 4.444 87.6012 4.31333 87.7039 4.22C87.8066 4.11733 87.9372 4.066 88.0959 4.066C88.2546 4.066 88.3852 4.11733 88.4879 4.22C88.5906 4.31333 88.6419 4.444 88.6419 4.612V11.22C88.6232 11.948 88.4412 12.606 88.0959 13.194C87.7599 13.7727 87.2979 14.23 86.7099 14.566C86.1312 14.902 85.4779 15.07 84.7499 15.07ZM84.7499 14.09C85.2912 14.09 85.7719 13.964 86.1919 13.712C86.6212 13.4507 86.9572 13.1007 87.1999 12.662C87.4519 12.2233 87.5779 11.724 87.5779 11.164C87.5779 10.6133 87.4519 10.1187 87.1999 9.68C86.9572 9.232 86.6212 8.882 86.1919 8.63C85.7719 8.378 85.2912 8.252 84.7499 8.252C84.2179 8.252 83.7372 8.378 83.3079 8.63C82.8786 8.882 82.5379 9.232 82.2859 9.68C82.0339 10.1187 81.9079 10.6133 81.9079 11.164C81.9079 11.724 82.0339 12.2233 82.2859 12.662C82.5379 13.1007 82.8786 13.4507 83.3079 13.712C83.7372 13.964 84.2179 14.09 84.7499 14.09Z" fill="white"/>
</svg>
